<?xml version="1.0" encoding="UTF-8" standalone="no"?>
<svg
   xmlns:dc="http://purl.org/dc/elements/1.1/"
   xmlns:cc="http://creativecommons.org/ns#"
   xmlns:rdf="http://www.w3.org/1999/02/22-rdf-syntax-ns#"
   xmlns:svg="http://www.w3.org/2000/svg"
   xmlns="http://www.w3.org/2000/svg"
   xmlns:sodipodi="http://sodipodi.sourceforge.net/DTD/sodipodi-0.dtd"
   xmlns:inkscape="http://www.inkscape.org/namespaces/inkscape"
   width="250.272"
   height="101.312"
   viewBox="0 0 250.272 101.312"
   version="1.1"
   id="svg16"
   sodipodi:docname="Group 16.svg"
   style="fill:none"
   inkscape:version="0.92.4 (unknown)">
  <metadata
     id="metadata22">
    <rdf:RDF>
      <cc:Work
         rdf:about="">
        <dc:format>image/svg+xml</dc:format>
        <dc:type
           rdf:resource="http://purl.org/dc/dcmitype/StillImage" />
        <dc:title></dc:title>
      </cc:Work>
    </rdf:RDF>
  </metadata>
  <defs
     id="defs20" />
  <sodipodi:namedview
     pagecolor="#ffffff"
     bordercolor="#666666"
     borderopacity="1"
     objecttolerance="10"
     gridtolerance="10"
     guidetolerance="10"
     inkscape:pageopacity="0"
     inkscape:pageshadow="2"
     inkscape:window-width="2560"
     inkscape:window-height="1376"
     id="namedview18"
     showgrid="false"
     fit-margin-top="0"
     fit-margin-left="0"
     fit-margin-right="0"
     fit-margin-bottom="0"
     inkscape:zoom="1.6388889"
     inkscape:cx="55.933017"
     inkscape:cy="37.291661"
     inkscape:window-x="0"
     inkscape:window-y="27"
     inkscape:window-maximized="1"
     inkscape:current-layer="svg16" />
  <circle
     cx="149.272"
     cy="20.799999"
     r="13"
     id="circle2"
     style="fill:#f0f0f0;stroke:#082032;stroke-width:4" />
  <circle
     cx="235.272"
     cy="20.799999"
     r="13"
     id="circle4"
     style="fill:#f0f0f0;stroke:#082032;stroke-width:4" />
  <path
     d="m 33.216,6.976 c 0,0.2133 -0.0853,0.4053 -0.256,0.576 -0.128,0.128 -0.2987,0.192 -0.512,0.192 H 11.52 c -0.2133,0 -0.32,0.1067 -0.32,0.32 v 9.92 c 0,0.2133 0.1067,0.32 0.32,0.32 h 13.76 c 0.2133,0 0.384,0.0853 0.512,0.256 0.1707,0.128 0.256,0.2987 0.256,0.512 v 6.208 c 0,0.2133 -0.0853,0.4053 -0.256,0.576 -0.128,0.128 -0.2987,0.192 -0.512,0.192 H 11.52 c -0.2133,0 -0.32,0.1067 -0.32,0.32 v 17.664 c 0,0.2133 -0.0853,0.4053 -0.256,0.576 -0.128,0.128 -0.2987,0.192 -0.512,0.192 H 2.944 C 2.73067,44.8 2.53867,44.736 2.368,44.608 2.24,44.4373 2.176,44.2453 2.176,44.032 V 0.768 C 2.176,0.55467 2.24,0.384 2.368,0.256 2.53867,0.08533 2.73067,0 2.944,0 h 29.504 c 0.2133,0 0.384,0.08533 0.512,0.256 0.1707,0.128 0.256,0.29867 0.256,0.512 z M 38.7565,44.8 c -0.2133,0 -0.4053,-0.064 -0.576,-0.192 -0.128,-0.1707 -0.192,-0.3627 -0.192,-0.576 V 0.768 c 0,-0.21333 0.064,-0.384 0.192,-0.512 C 38.3512,0.08533 38.5432,0 38.7565,0 h 7.488 c 0.2133,0 0.384,0.08533 0.512,0.256 0.1707,0.128 0.256,0.29867 0.256,0.512 v 43.264 c 0,0.2133 -0.0853,0.4053 -0.256,0.576 -0.128,0.128 -0.2987,0.192 -0.512,0.192 z m 16.8125,0 c -0.2133,0 -0.4053,-0.064 -0.576,-0.192 -0.128,-0.1707 -0.192,-0.3627 -0.192,-0.576 V 0.768 c 0,-0.21333 0.064,-0.384 0.192,-0.512 C 55.1637,0.08533 55.3557,0 55.569,0 h 7.488 c 0.2133,0 0.384,0.08533 0.512,0.256 0.1707,0.128 0.256,0.29867 0.256,0.512 v 35.968 c 0,0.2133 0.1067,0.32 0.32,0.32 h 20.928 c 0.2133,0 0.384,0.0853 0.512,0.256 0.1707,0.128 0.256,0.2987 0.256,0.512 v 6.208 c 0,0.2133 -0.0853,0.4053 -0.256,0.576 -0.128,0.128 -0.2987,0.192 -0.512,0.192 z m 65.4,0 c -0.427,0 -0.704,-0.2133 -0.832,-0.64 l -1.92,-6.272 c -0.086,-0.1707 -0.192,-0.256 -0.32,-0.256 h -15.744 c -0.128,0 -0.235,0.0853 -0.32,0.256 l -1.856,6.272 c -0.128,0.4267 -0.406,0.64 -0.832,0.64 h -8.1285 c -0.256,0 -0.448,-0.064 -0.576,-0.192 -0.128,-0.1707 -0.1493,-0.4053 -0.064,-0.704 L 104.201,0.64 C 104.329,0.21333 104.606,0 105.032,0 h 10.049 c 0.426,0 0.704,0.21333 0.832,0.64 l 13.824,43.264 c 0.042,0.0853 0.064,0.192 0.064,0.32 0,0.384 -0.235,0.576 -0.704,0.576 z M 104.137,30.272 c -0.043,0.256 0.042,0.384 0.256,0.384 h 11.264 c 0.256,0 0.341,-0.128 0.256,-0.384 l -5.76,-19.008 c -0.043,-0.1707 -0.107,-0.2347 -0.192,-0.192 -0.086,0 -0.15,0.064 -0.192,0.192 z M 14.08,100.8 c -0.4267,0 -0.704,-0.213 -0.832,-0.64 L 0.064,56.896 0,56.64 C 0,56.2133 0.23467,56 0.704,56 h 8.064 c 0.4693,0 0.768,0.2133 0.896,0.64 l 8.512,31.232 c 0.0427,0.128 0.1067,0.192 0.192,0.192 0.0853,0 0.1493,-0.064 0.192,-0.192 L 26.944,56.64 C 27.072,56.2133 27.3707,56 27.84,56 h 7.872 c 0.256,0 0.448,0.0853 0.576,0.256 0.128,0.1707 0.1493,0.384 0.064,0.64 L 22.976,100.16 c -0.128,0.427 -0.4053,0.64 -0.832,0.64 z m 28.6765,0 c -0.2133,0 -0.4053,-0.064 -0.576,-0.192 -0.128,-0.171 -0.192,-0.363 -0.192,-0.576 V 56.768 c 0,-0.2133 0.064,-0.384 0.192,-0.512 C 42.3512,56.0853 42.5432,56 42.7565,56 h 7.488 c 0.2133,0 0.384,0.0853 0.512,0.256 0.1707,0.128 0.256,0.2987 0.256,0.512 v 43.264 c 0,0.213 -0.0853,0.405 -0.256,0.576 -0.128,0.128 -0.2987,0.192 -0.512,0.192 z m 40.6205,0 c -0.4267,0 -0.7253,-0.192 -0.896,-0.576 l -8,-17.728 C 74.3957,82.3253 74.2677,82.24 74.097,82.24 h -5.952 c -0.2133,0 -0.32,0.1067 -0.32,0.32 v 17.472 c 0,0.213 -0.0853,0.405 -0.256,0.576 -0.128,0.128 -0.2987,0.192 -0.512,0.192 h -7.488 c -0.2133,0 -0.4053,-0.064 -0.576,-0.192 -0.128,-0.171 -0.192,-0.363 -0.192,-0.576 V 56.768 c 0,-0.2133 0.064,-0.384 0.192,-0.512 C 59.1637,56.0853 59.3557,56 59.569,56 h 18.304 c 2.7307,0 5.12,0.5547 7.168,1.664 2.0907,1.1093 3.6907,2.688 4.8,4.736 1.152,2.048 1.728,4.416 1.728,7.104 0,2.9013 -0.7253,5.3973 -2.176,7.488 -1.4507,2.048 -3.4773,3.4987 -6.08,4.352 -0.2133,0.0853 -0.2773,0.2347 -0.192,0.448 l 8.704,18.112 c 0.0853,0.171 0.128,0.299 0.128,0.384 0,0.341 -0.2347,0.512 -0.704,0.512 z M 68.145,63.744 c -0.2133,0 -0.32,0.1067 -0.32,0.32 v 10.944 c 0,0.2133 0.1067,0.32 0.32,0.32 h 8.384 c 1.792,0 3.2427,-0.5333 4.352,-1.6 1.152,-1.0667 1.728,-2.4533 1.728,-4.16 0,-1.7067 -0.576,-3.0933 -1.728,-4.16 -1.1093,-1.1093 -2.56,-1.664 -4.352,-1.664 z M 128.963,56 c 0.213,0 0.384,0.0853 0.512,0.256 0.171,0.128 0.256,0.2987 0.256,0.512 v 6.272 c 0,0.2133 -0.085,0.4053 -0.256,0.576 -0.128,0.128 -0.299,0.192 -0.512,0.192 h -11.456 c -0.213,0 -0.32,0.1067 -0.32,0.32 v 35.904 c 0,0.213 -0.085,0.405 -0.256,0.576 -0.128,0.128 -0.299,0.192 -0.512,0.192 h -7.488 c -0.213,0 -0.405,-0.064 -0.576,-0.192 -0.128,-0.171 -0.192,-0.363 -0.192,-0.576 V 64.128 c 0,-0.2133 -0.107,-0.32 -0.32,-0.32 H 96.707 c -0.2133,0 -0.4053,-0.064 -0.576,-0.192 -0.128,-0.1707 -0.192,-0.3627 -0.192,-0.576 v -6.272 c 0,-0.2133 0.064,-0.384 0.192,-0.512 C 96.3017,56.0853 96.4937,56 96.707,56 Z m 22.782,45.312 c -3.286,0 -6.187,-0.64 -8.704,-1.92 -2.475,-1.28 -4.416,-3.072 -5.824,-5.376 -1.366,-2.347 -2.048,-5.0347 -2.048,-8.064 V 56.768 c 0,-0.2133 0.064,-0.384 0.192,-0.512 0.17,-0.1707 0.362,-0.256 0.576,-0.256 h 7.488 c 0.213,0 0.384,0.0853 0.512,0.256 0.17,0.128 0.256,0.2987 0.256,0.512 v 29.248 c 0,2.2613 0.682,4.096 2.048,5.504 1.408,1.365 3.242,2.048 5.504,2.048 2.261,0 4.074,-0.683 5.44,-2.048 1.408,-1.408 2.112,-3.2427 2.112,-5.504 V 56.768 c 0,-0.2133 0.064,-0.384 0.192,-0.512 0.17,-0.1707 0.362,-0.256 0.576,-0.256 h 7.488 c 0.213,0 0.384,0.0853 0.512,0.256 0.17,0.128 0.256,0.2987 0.256,0.512 v 29.184 c 0,3.0293 -0.704,5.717 -2.112,8.064 -1.366,2.304 -3.307,4.096 -5.824,5.376 -2.475,1.28 -5.355,1.92 -8.64,1.92 z m 51.286,-0.512 c -0.427,0 -0.704,-0.213 -0.832,-0.64 l -1.92,-6.272 c -0.085,-0.171 -0.192,-0.256 -0.32,-0.256 h -15.744 c -0.128,0 -0.235,0.085 -0.32,0.256 l -1.856,6.272 c -0.128,0.427 -0.405,0.64 -0.832,0.64 h -8.128 c -0.256,0 -0.448,-0.064 -0.576,-0.192 -0.128,-0.171 -0.149,-0.405 -0.064,-0.704 L 186.263,56.64 c 0.128,-0.4267 0.405,-0.64 0.832,-0.64 h 10.048 c 0.427,0 0.704,0.2133 0.832,0.64 l 13.824,43.264 c 0.043,0.085 0.064,0.192 0.064,0.32 0,0.384 -0.235,0.576 -0.704,0.576 z M 186.199,86.272 c -0.043,0.256 0.043,0.384 0.256,0.384 h 11.264 c 0.256,0 0.341,-0.128 0.256,-0.384 l -5.76,-19.008 c -0.043,-0.1707 -0.107,-0.2347 -0.192,-0.192 -0.085,0 -0.149,0.064 -0.192,0.192 z m 32.058,14.528 c -0.214,0 -0.406,-0.064 -0.576,-0.192 -0.128,-0.171 -0.192,-0.363 -0.192,-0.576 V 56.768 c 0,-0.2133 0.064,-0.384 0.192,-0.512 0.17,-0.1707 0.362,-0.256 0.576,-0.256 h 7.488 c 0.213,0 0.384,0.0853 0.512,0.256 0.17,0.128 0.256,0.2987 0.256,0.512 v 35.968 c 0,0.213 0.106,0.32 0.32,0.32 h 20.928 c 0.213,0 0.384,0.085 0.512,0.256 0.17,0.128 0.256,0.299 0.256,0.512 v 6.208 c 0,0.213 -0.086,0.405 -0.256,0.576 -0.128,0.128 -0.299,0.192 -0.512,0.192 z"
     id="path6"
     inkscape:connector-curvature="0"
     style="fill:#082032" />
  <path
     d="m 33.216,6.976 c 0,0.2133 -0.0853,0.4053 -0.256,0.576 -0.128,0.128 -0.2987,0.192 -0.512,0.192 H 11.52 c -0.2133,0 -0.32,0.1067 -0.32,0.32 v 9.92 c 0,0.2133 0.1067,0.32 0.32,0.32 h 13.76 c 0.2133,0 0.384,0.0853 0.512,0.256 0.1707,0.128 0.256,0.2987 0.256,0.512 v 6.208 c 0,0.2133 -0.0853,0.4053 -0.256,0.576 -0.128,0.128 -0.2987,0.192 -0.512,0.192 H 11.52 c -0.2133,0 -0.32,0.1067 -0.32,0.32 v 17.664 c 0,0.2133 -0.0853,0.4053 -0.256,0.576 -0.128,0.128 -0.2987,0.192 -0.512,0.192 H 2.944 C 2.73067,44.8 2.53867,44.736 2.368,44.608 2.24,44.4373 2.176,44.2453 2.176,44.032 V 0.768 C 2.176,0.55467 2.24,0.384 2.368,0.256 2.53867,0.08533 2.73067,0 2.944,0 h 29.504 c 0.2133,0 0.384,0.08533 0.512,0.256 0.1707,0.128 0.256,0.29867 0.256,0.512 z M 38.7565,44.8 c -0.2133,0 -0.4053,-0.064 -0.576,-0.192 -0.128,-0.1707 -0.192,-0.3627 -0.192,-0.576 V 0.768 c 0,-0.21333 0.064,-0.384 0.192,-0.512 C 38.3512,0.08533 38.5432,0 38.7565,0 h 7.488 c 0.2133,0 0.384,0.08533 0.512,0.256 0.1707,0.128 0.256,0.29867 0.256,0.512 v 43.264 c 0,0.2133 -0.0853,0.4053 -0.256,0.576 -0.128,0.128 -0.2987,0.192 -0.512,0.192 z m 16.8125,0 c -0.2133,0 -0.4053,-0.064 -0.576,-0.192 -0.128,-0.1707 -0.192,-0.3627 -0.192,-0.576 V 0.768 c 0,-0.21333 0.064,-0.384 0.192,-0.512 C 55.1637,0.08533 55.3557,0 55.569,0 h 7.488 c 0.2133,0 0.384,0.08533 0.512,0.256 0.1707,0.128 0.256,0.29867 0.256,0.512 v 35.968 c 0,0.2133 0.1067,0.32 0.32,0.32 h 20.928 c 0.2133,0 0.384,0.0853 0.512,0.256 0.1707,0.128 0.256,0.2987 0.256,0.512 v 6.208 c 0,0.2133 -0.0853,0.4053 -0.256,0.576 -0.128,0.128 -0.2987,0.192 -0.512,0.192 z m 65.4,0 c -0.427,0 -0.704,-0.2133 -0.832,-0.64 l -1.92,-6.272 c -0.086,-0.1707 -0.192,-0.256 -0.32,-0.256 h -15.744 c -0.128,0 -0.235,0.0853 -0.32,0.256 l -1.856,6.272 c -0.128,0.4267 -0.406,0.64 -0.832,0.64 h -8.1285 c -0.256,0 -0.448,-0.064 -0.576,-0.192 -0.128,-0.1707 -0.1493,-0.4053 -0.064,-0.704 L 104.201,0.64 C 104.329,0.21333 104.606,0 105.032,0 h 10.049 c 0.426,0 0.704,0.21333 0.832,0.64 l 13.824,43.264 c 0.042,0.0853 0.064,0.192 0.064,0.32 0,0.384 -0.235,0.576 -0.704,0.576 z M 104.137,30.272 c -0.043,0.256 0.042,0.384 0.256,0.384 h 11.264 c 0.256,0 0.341,-0.128 0.256,-0.384 l -5.76,-19.008 c -0.043,-0.1707 -0.107,-0.2347 -0.192,-0.192 -0.086,0 -0.15,0.064 -0.192,0.192 z M 14.08,100.8 c -0.4267,0 -0.704,-0.213 -0.832,-0.64 L 0.064,56.896 0,56.64 C 0,56.2133 0.23467,56 0.704,56 h 8.064 c 0.4693,0 0.768,0.2133 0.896,0.64 l 8.512,31.232 c 0.0427,0.128 0.1067,0.192 0.192,0.192 0.0853,0 0.1493,-0.064 0.192,-0.192 L 26.944,56.64 C 27.072,56.2133 27.3707,56 27.84,56 h 7.872 c 0.256,0 0.448,0.0853 0.576,0.256 0.128,0.1707 0.1493,0.384 0.064,0.64 L 22.976,100.16 c -0.128,0.427 -0.4053,0.64 -0.832,0.64 z m 28.6765,0 c -0.2133,0 -0.4053,-0.064 -0.576,-0.192 -0.128,-0.171 -0.192,-0.363 -0.192,-0.576 V 56.768 c 0,-0.2133 0.064,-0.384 0.192,-0.512 C 42.3512,56.0853 42.5432,56 42.7565,56 h 7.488 c 0.2133,0 0.384,0.0853 0.512,0.256 0.1707,0.128 0.256,0.2987 0.256,0.512 v 43.264 c 0,0.213 -0.0853,0.405 -0.256,0.576 -0.128,0.128 -0.2987,0.192 -0.512,0.192 z m 40.6205,0 c -0.4267,0 -0.7253,-0.192 -0.896,-0.576 l -8,-17.728 C 74.3957,82.3253 74.2677,82.24 74.097,82.24 h -5.952 c -0.2133,0 -0.32,0.1067 -0.32,0.32 v 17.472 c 0,0.213 -0.0853,0.405 -0.256,0.576 -0.128,0.128 -0.2987,0.192 -0.512,0.192 h -7.488 c -0.2133,0 -0.4053,-0.064 -0.576,-0.192 -0.128,-0.171 -0.192,-0.363 -0.192,-0.576 V 56.768 c 0,-0.2133 0.064,-0.384 0.192,-0.512 C 59.1637,56.0853 59.3557,56 59.569,56 h 18.304 c 2.7307,0 5.12,0.5547 7.168,1.664 2.0907,1.1093 3.6907,2.688 4.8,4.736 1.152,2.048 1.728,4.416 1.728,7.104 0,2.9013 -0.7253,5.3973 -2.176,7.488 -1.4507,2.048 -3.4773,3.4987 -6.08,4.352 -0.2133,0.0853 -0.2773,0.2347 -0.192,0.448 l 8.704,18.112 c 0.0853,0.171 0.128,0.299 0.128,0.384 0,0.341 -0.2347,0.512 -0.704,0.512 z M 68.145,63.744 c -0.2133,0 -0.32,0.1067 -0.32,0.32 v 10.944 c 0,0.2133 0.1067,0.32 0.32,0.32 h 8.384 c 1.792,0 3.2427,-0.5333 4.352,-1.6 1.152,-1.0667 1.728,-2.4533 1.728,-4.16 0,-1.7067 -0.576,-3.0933 -1.728,-4.16 -1.1093,-1.1093 -2.56,-1.664 -4.352,-1.664 z M 128.963,56 c 0.213,0 0.384,0.0853 0.512,0.256 0.171,0.128 0.256,0.2987 0.256,0.512 v 6.272 c 0,0.2133 -0.085,0.4053 -0.256,0.576 -0.128,0.128 -0.299,0.192 -0.512,0.192 h -11.456 c -0.213,0 -0.32,0.1067 -0.32,0.32 v 35.904 c 0,0.213 -0.085,0.405 -0.256,0.576 -0.128,0.128 -0.299,0.192 -0.512,0.192 h -7.488 c -0.213,0 -0.405,-0.064 -0.576,-0.192 -0.128,-0.171 -0.192,-0.363 -0.192,-0.576 V 64.128 c 0,-0.2133 -0.107,-0.32 -0.32,-0.32 H 96.707 c -0.2133,0 -0.4053,-0.064 -0.576,-0.192 -0.128,-0.1707 -0.192,-0.3627 -0.192,-0.576 v -6.272 c 0,-0.2133 0.064,-0.384 0.192,-0.512 C 96.3017,56.0853 96.4937,56 96.707,56 Z m 22.782,45.312 c -3.286,0 -6.187,-0.64 -8.704,-1.92 -2.475,-1.28 -4.416,-3.072 -5.824,-5.376 -1.366,-2.347 -2.048,-5.0347 -2.048,-8.064 V 56.768 c 0,-0.2133 0.064,-0.384 0.192,-0.512 0.17,-0.1707 0.362,-0.256 0.576,-0.256 h 7.488 c 0.213,0 0.384,0.0853 0.512,0.256 0.17,0.128 0.256,0.2987 0.256,0.512 v 29.248 c 0,2.2613 0.682,4.096 2.048,5.504 1.408,1.365 3.242,2.048 5.504,2.048 2.261,0 4.074,-0.683 5.44,-2.048 1.408,-1.408 2.112,-3.2427 2.112,-5.504 V 56.768 c 0,-0.2133 0.064,-0.384 0.192,-0.512 0.17,-0.1707 0.362,-0.256 0.576,-0.256 h 7.488 c 0.213,0 0.384,0.0853 0.512,0.256 0.17,0.128 0.256,0.2987 0.256,0.512 v 29.184 c 0,3.0293 -0.704,5.717 -2.112,8.064 -1.366,2.304 -3.307,4.096 -5.824,5.376 -2.475,1.28 -5.355,1.92 -8.64,1.92 z m 51.286,-0.512 c -0.427,0 -0.704,-0.213 -0.832,-0.64 l -1.92,-6.272 c -0.085,-0.171 -0.192,-0.256 -0.32,-0.256 h -15.744 c -0.128,0 -0.235,0.085 -0.32,0.256 l -1.856,6.272 c -0.128,0.427 -0.405,0.64 -0.832,0.64 h -8.128 c -0.256,0 -0.448,-0.064 -0.576,-0.192 -0.128,-0.171 -0.149,-0.405 -0.064,-0.704 L 186.263,56.64 c 0.128,-0.4267 0.405,-0.64 0.832,-0.64 h 10.048 c 0.427,0 0.704,0.2133 0.832,0.64 l 13.824,43.264 c 0.043,0.085 0.064,0.192 0.064,0.32 0,0.384 -0.235,0.576 -0.704,0.576 z M 186.199,86.272 c -0.043,0.256 0.043,0.384 0.256,0.384 h 11.264 c 0.256,0 0.341,-0.128 0.256,-0.384 l -5.76,-19.008 c -0.043,-0.1707 -0.107,-0.2347 -0.192,-0.192 -0.085,0 -0.149,0.064 -0.192,0.192 z m 32.058,14.528 c -0.214,0 -0.406,-0.064 -0.576,-0.192 -0.128,-0.171 -0.192,-0.363 -0.192,-0.576 V 56.768 c 0,-0.2133 0.064,-0.384 0.192,-0.512 0.17,-0.1707 0.362,-0.256 0.576,-0.256 h 7.488 c 0.213,0 0.384,0.0853 0.512,0.256 0.17,0.128 0.256,0.2987 0.256,0.512 v 35.968 c 0,0.213 0.106,0.32 0.32,0.32 h 20.928 c 0.213,0 0.384,0.085 0.512,0.256 0.17,0.128 0.256,0.299 0.256,0.512 v 6.208 c 0,0.213 -0.086,0.405 -0.256,0.576 -0.128,0.128 -0.299,0.192 -0.512,0.192 z"
     id="path8"
     inkscape:connector-curvature="0"
     style="fill:#082032" />
  <circle
     cx="192.272"
     cy="20.799999"
     r="13"
     id="circle10"
     style="fill:#ff4c29;stroke:#082032;stroke-width:4" />
  <rect
     x="163.772"
     y="19.299999"
     width="14"
     height="3"
     id="rect12"
     style="fill:#082032;stroke:#082032" />
  <rect
     x="206.772"
     y="19.299999"
     width="14"
     height="3"
     id="rect14"
     style="fill:#082032;stroke:#082032" />
</svg>
