<?xml version="1.0" encoding="UTF-8" standalone="no"?>
<svg
   xmlns:dc="http://purl.org/dc/elements/1.1/"
   xmlns:cc="http://creativecommons.org/ns#"
   xmlns:rdf="http://www.w3.org/1999/02/22-rdf-syntax-ns#"
   xmlns:svg="http://www.w3.org/2000/svg"
   xmlns="http://www.w3.org/2000/svg"
   xmlns:sodipodi="http://sodipodi.sourceforge.net/DTD/sodipodi-0.dtd"
   xmlns:inkscape="http://www.inkscape.org/namespaces/inkscape"
   width="275"
   height="119"
   viewBox="0 0 275 119"
   version="1.1"
   id="svg18"
   sodipodi:docname="Group 17.svg"
   style="fill:none"
   inkscape:version="0.92.4 (unknown)">
  <metadata
     id="metadata24">
    <rdf:RDF>
      <cc:Work
         rdf:about="">
        <dc:format>image/svg+xml</dc:format>
        <dc:type
           rdf:resource="http://purl.org/dc/dcmitype/StillImage" />
        <dc:title></dc:title>
      </cc:Work>
    </rdf:RDF>
  </metadata>
  <defs
     id="defs22" />
  <sodipodi:namedview
     pagecolor="#ffffff"
     bordercolor="#666666"
     borderopacity="1"
     objecttolerance="10"
     gridtolerance="10"
     guidetolerance="10"
     inkscape:pageopacity="0"
     inkscape:pageshadow="2"
     inkscape:window-width="2560"
     inkscape:window-height="1376"
     id="namedview20"
     showgrid="false"
     inkscape:zoom="1.5236364"
     inkscape:cx="63.991647"
     inkscape:cy="20.687351"
     inkscape:window-x="0"
     inkscape:window-y="27"
     inkscape:window-maximized="1"
     inkscape:current-layer="svg18"
     fit-margin-top="0"
     fit-margin-left="0"
     fit-margin-right="0"
     fit-margin-bottom="0" />
  <rect
     width="275"
     height="119"
     id="rect2"
     x="0"
     y="0"
     style="fill:#082032" />
  <circle
     cx="156"
     cy="30"
     r="13"
     id="circle4"
     style="fill:#082032;stroke:#ffffff;stroke-width:4" />
  <circle
     cx="242"
     cy="30"
     r="13"
     id="circle6"
     style="fill:#082032;stroke:#ffffff;stroke-width:4" />
  <path
     d="m 39.944,16.176 c 0,0.2133 -0.0853,0.4053 -0.256,0.576 -0.128,0.128 -0.2987,0.192 -0.512,0.192 H 18.248 c -0.2133,0 -0.32,0.1067 -0.32,0.32 v 9.92 c 0,0.2133 0.1067,0.32 0.32,0.32 h 13.76 c 0.2133,0 0.384,0.0853 0.512,0.256 0.1707,0.128 0.256,0.2987 0.256,0.512 v 6.208 c 0,0.2133 -0.0853,0.4053 -0.256,0.576 -0.128,0.128 -0.2987,0.192 -0.512,0.192 h -13.76 c -0.2133,0 -0.32,0.1067 -0.32,0.32 v 17.664 c 0,0.2133 -0.0853,0.4053 -0.256,0.576 C 17.544,53.936 17.3733,54 17.16,54 H 9.672 C 9.45867,54 9.26667,53.936 9.096,53.808 8.968,53.6373 8.904,53.4453 8.904,53.232 V 9.968 C 8.904,9.75467 8.968,9.584 9.096,9.456 9.26667,9.28533 9.45867,9.2 9.672,9.2 h 29.504 c 0.2133,0 0.384,0.08533 0.512,0.256 0.1707,0.128 0.256,0.29867 0.256,0.512 z M 45.4845,54 c -0.2133,0 -0.4053,-0.064 -0.576,-0.192 -0.128,-0.1707 -0.192,-0.3627 -0.192,-0.576 V 9.968 c 0,-0.21333 0.064,-0.384 0.192,-0.512 C 45.0792,9.28533 45.2712,9.2 45.4845,9.2 h 7.488 c 0.2133,0 0.384,0.08533 0.512,0.256 0.1707,0.128 0.256,0.29867 0.256,0.512 v 43.264 c 0,0.2133 -0.0853,0.4053 -0.256,0.576 C 53.3565,53.936 53.1858,54 52.9725,54 Z m 16.8125,0 c -0.2133,0 -0.4053,-0.064 -0.576,-0.192 -0.128,-0.1707 -0.192,-0.3627 -0.192,-0.576 V 9.968 c 0,-0.21333 0.064,-0.384 0.192,-0.512 C 61.8917,9.28533 62.0837,9.2 62.297,9.2 h 7.488 c 0.2133,0 0.384,0.08533 0.512,0.256 0.1707,0.128 0.256,0.29867 0.256,0.512 v 35.968 c 0,0.2133 0.1067,0.32 0.32,0.32 h 20.928 c 0.2133,0 0.384,0.0853 0.512,0.256 0.1707,0.128 0.256,0.2987 0.256,0.512 v 6.208 c 0,0.2133 -0.0853,0.4053 -0.256,0.576 C 92.185,53.936 92.0143,54 91.801,54 Z m 65.4,0 c -0.427,0 -0.704,-0.2133 -0.832,-0.64 l -1.92,-6.272 c -0.086,-0.1707 -0.192,-0.256 -0.32,-0.256 h -15.744 c -0.128,0 -0.235,0.0853 -0.32,0.256 l -1.856,6.272 c -0.128,0.4267 -0.406,0.64 -0.832,0.64 h -8.1285 c -0.256,0 -0.448,-0.064 -0.576,-0.192 -0.128,-0.1707 -0.1493,-0.4053 -0.064,-0.704 L 110.929,9.84 c 0.128,-0.42667 0.405,-0.64 0.831,-0.64 h 10.049 c 0.426,0 0.704,0.21333 0.832,0.64 l 13.824,43.264 c 0.042,0.0853 0.064,0.192 0.064,0.32 0,0.384 -0.235,0.576 -0.704,0.576 z M 110.865,39.472 c -0.043,0.256 0.042,0.384 0.256,0.384 h 11.264 c 0.256,0 0.341,-0.128 0.256,-0.384 l -5.76,-19.008 c -0.043,-0.1707 -0.107,-0.2347 -0.192,-0.192 -0.086,0 -0.15,0.064 -0.192,0.192 z M 20.808,110 c -0.4267,0 -0.704,-0.213 -0.832,-0.64 L 6.792,66.096 6.728,65.84 c 0,-0.4267 0.23467,-0.64 0.704,-0.64 h 8.064 c 0.4693,0 0.768,0.2133 0.896,0.64 l 8.512,31.232 c 0.0427,0.128 0.1067,0.192 0.192,0.192 0.0853,0 0.1493,-0.064 0.192,-0.192 L 33.672,65.84 C 33.8,65.4133 34.0987,65.2 34.568,65.2 h 7.872 c 0.256,0 0.448,0.0853 0.576,0.256 0.128,0.1707 0.1493,0.384 0.064,0.64 L 29.704,109.36 c -0.128,0.427 -0.4053,0.64 -0.832,0.64 z m 28.6765,0 c -0.2133,0 -0.4053,-0.064 -0.576,-0.192 -0.128,-0.171 -0.192,-0.363 -0.192,-0.576 V 65.968 c 0,-0.2133 0.064,-0.384 0.192,-0.512 0.1707,-0.1707 0.3627,-0.256 0.576,-0.256 h 7.488 c 0.2133,0 0.384,0.0853 0.512,0.256 0.1707,0.128 0.256,0.2987 0.256,0.512 v 43.264 c 0,0.213 -0.0853,0.405 -0.256,0.576 -0.128,0.128 -0.2987,0.192 -0.512,0.192 z m 40.6205,0 c -0.4267,0 -0.7253,-0.192 -0.896,-0.576 l -8,-17.728 C 81.1237,91.5253 80.9957,91.44 80.825,91.44 h -5.952 c -0.2133,0 -0.32,0.1067 -0.32,0.32 v 17.472 c 0,0.213 -0.0853,0.405 -0.256,0.576 -0.128,0.128 -0.2987,0.192 -0.512,0.192 h -7.488 c -0.2133,0 -0.4053,-0.064 -0.576,-0.192 -0.128,-0.171 -0.192,-0.363 -0.192,-0.576 V 65.968 c 0,-0.2133 0.064,-0.384 0.192,-0.512 0.1707,-0.1707 0.3627,-0.256 0.576,-0.256 h 18.304 c 2.7307,0 5.12,0.5547 7.168,1.664 2.0907,1.1093 3.6907,2.688 4.8,4.736 1.152,2.048 1.728,4.416 1.728,7.104 0,2.9013 -0.7253,5.3973 -2.176,7.488 -1.4507,2.048 -3.4773,3.4987 -6.08,4.352 -0.2133,0.0853 -0.2773,0.2347 -0.192,0.448 l 8.704,18.112 c 0.0853,0.171 0.128,0.299 0.128,0.384 0,0.341 -0.2347,0.512 -0.704,0.512 z M 74.873,72.944 c -0.2133,0 -0.32,0.1067 -0.32,0.32 v 10.944 c 0,0.2133 0.1067,0.32 0.32,0.32 h 8.384 c 1.792,0 3.2427,-0.5333 4.352,-1.6 1.152,-1.0667 1.728,-2.4533 1.728,-4.16 0,-1.7067 -0.576,-3.0933 -1.728,-4.16 -1.1093,-1.1093 -2.56,-1.664 -4.352,-1.664 z M 135.691,65.2 c 0.213,0 0.384,0.0853 0.512,0.256 0.171,0.128 0.256,0.2987 0.256,0.512 v 6.272 c 0,0.2133 -0.085,0.4053 -0.256,0.576 -0.128,0.128 -0.299,0.192 -0.512,0.192 h -11.456 c -0.213,0 -0.32,0.1067 -0.32,0.32 v 35.904 c 0,0.213 -0.085,0.405 -0.256,0.576 -0.128,0.128 -0.299,0.192 -0.512,0.192 h -7.488 c -0.213,0 -0.405,-0.064 -0.576,-0.192 -0.128,-0.171 -0.192,-0.363 -0.192,-0.576 V 73.328 c 0,-0.2133 -0.107,-0.32 -0.32,-0.32 h -11.136 c -0.213,0 -0.405,-0.064 -0.576,-0.192 -0.128,-0.1707 -0.192,-0.3627 -0.192,-0.576 v -6.272 c 0,-0.2133 0.064,-0.384 0.192,-0.512 0.171,-0.1707 0.363,-0.256 0.576,-0.256 z m 22.782,45.312 c -3.286,0 -6.187,-0.64 -8.704,-1.92 -2.475,-1.28 -4.416,-3.072 -5.824,-5.376 -1.366,-2.347 -2.048,-5.0347 -2.048,-8.064 V 65.968 c 0,-0.2133 0.064,-0.384 0.192,-0.512 0.17,-0.1707 0.362,-0.256 0.576,-0.256 h 7.488 c 0.213,0 0.384,0.0853 0.512,0.256 0.17,0.128 0.256,0.2987 0.256,0.512 v 29.248 c 0,2.2613 0.682,4.096 2.048,5.504 1.408,1.365 3.242,2.048 5.504,2.048 2.261,0 4.074,-0.683 5.44,-2.048 1.408,-1.408 2.112,-3.2427 2.112,-5.504 V 65.968 c 0,-0.2133 0.064,-0.384 0.192,-0.512 0.17,-0.1707 0.362,-0.256 0.576,-0.256 h 7.488 c 0.213,0 0.384,0.0853 0.512,0.256 0.17,0.128 0.256,0.2987 0.256,0.512 v 29.184 c 0,3.0293 -0.704,5.717 -2.112,8.064 -1.366,2.304 -3.307,4.096 -5.824,5.376 -2.475,1.28 -5.355,1.92 -8.64,1.92 z M 209.759,110 c -0.427,0 -0.704,-0.213 -0.832,-0.64 l -1.92,-6.272 c -0.085,-0.171 -0.192,-0.256 -0.32,-0.256 h -15.744 c -0.128,0 -0.235,0.085 -0.32,0.256 l -1.856,6.272 c -0.128,0.427 -0.405,0.64 -0.832,0.64 h -8.128 c -0.256,0 -0.448,-0.064 -0.576,-0.192 -0.128,-0.171 -0.149,-0.405 -0.064,-0.704 L 192.991,65.84 c 0.128,-0.4267 0.405,-0.64 0.832,-0.64 h 10.048 c 0.427,0 0.704,0.2133 0.832,0.64 l 13.824,43.264 c 0.043,0.085 0.064,0.192 0.064,0.32 0,0.384 -0.235,0.576 -0.704,0.576 z M 192.927,95.472 c -0.043,0.256 0.043,0.384 0.256,0.384 h 11.264 c 0.256,0 0.341,-0.128 0.256,-0.384 l -5.76,-19.008 c -0.043,-0.1707 -0.107,-0.2347 -0.192,-0.192 -0.085,0 -0.149,0.064 -0.192,0.192 z M 224.985,110 c -0.214,0 -0.406,-0.064 -0.576,-0.192 -0.128,-0.171 -0.192,-0.363 -0.192,-0.576 V 65.968 c 0,-0.2133 0.064,-0.384 0.192,-0.512 0.17,-0.1707 0.362,-0.256 0.576,-0.256 h 7.488 c 0.213,0 0.384,0.0853 0.512,0.256 0.17,0.128 0.256,0.2987 0.256,0.512 v 35.968 c 0,0.213 0.106,0.32 0.32,0.32 h 20.928 c 0.213,0 0.384,0.085 0.512,0.256 0.17,0.128 0.256,0.299 0.256,0.512 v 6.208 c 0,0.213 -0.086,0.405 -0.256,0.576 -0.128,0.128 -0.299,0.192 -0.512,0.192 z"
     id="path8"
     inkscape:connector-curvature="0"
     style="fill:#082032" />
  <path
     d="m 39.944,16.176 c 0,0.2133 -0.0853,0.4053 -0.256,0.576 -0.128,0.128 -0.2987,0.192 -0.512,0.192 H 18.248 c -0.2133,0 -0.32,0.1067 -0.32,0.32 v 9.92 c 0,0.2133 0.1067,0.32 0.32,0.32 h 13.76 c 0.2133,0 0.384,0.0853 0.512,0.256 0.1707,0.128 0.256,0.2987 0.256,0.512 v 6.208 c 0,0.2133 -0.0853,0.4053 -0.256,0.576 -0.128,0.128 -0.2987,0.192 -0.512,0.192 h -13.76 c -0.2133,0 -0.32,0.1067 -0.32,0.32 v 17.664 c 0,0.2133 -0.0853,0.4053 -0.256,0.576 C 17.544,53.936 17.3733,54 17.16,54 H 9.672 C 9.45867,54 9.26667,53.936 9.096,53.808 8.968,53.6373 8.904,53.4453 8.904,53.232 V 9.968 C 8.904,9.75467 8.968,9.584 9.096,9.456 9.26667,9.28533 9.45867,9.2 9.672,9.2 h 29.504 c 0.2133,0 0.384,0.08533 0.512,0.256 0.1707,0.128 0.256,0.29867 0.256,0.512 z M 45.4845,54 c -0.2133,0 -0.4053,-0.064 -0.576,-0.192 -0.128,-0.1707 -0.192,-0.3627 -0.192,-0.576 V 9.968 c 0,-0.21333 0.064,-0.384 0.192,-0.512 C 45.0792,9.28533 45.2712,9.2 45.4845,9.2 h 7.488 c 0.2133,0 0.384,0.08533 0.512,0.256 0.1707,0.128 0.256,0.29867 0.256,0.512 v 43.264 c 0,0.2133 -0.0853,0.4053 -0.256,0.576 C 53.3565,53.936 53.1858,54 52.9725,54 Z m 16.8125,0 c -0.2133,0 -0.4053,-0.064 -0.576,-0.192 -0.128,-0.1707 -0.192,-0.3627 -0.192,-0.576 V 9.968 c 0,-0.21333 0.064,-0.384 0.192,-0.512 C 61.8917,9.28533 62.0837,9.2 62.297,9.2 h 7.488 c 0.2133,0 0.384,0.08533 0.512,0.256 0.1707,0.128 0.256,0.29867 0.256,0.512 v 35.968 c 0,0.2133 0.1067,0.32 0.32,0.32 h 20.928 c 0.2133,0 0.384,0.0853 0.512,0.256 0.1707,0.128 0.256,0.2987 0.256,0.512 v 6.208 c 0,0.2133 -0.0853,0.4053 -0.256,0.576 C 92.185,53.936 92.0143,54 91.801,54 Z m 65.4,0 c -0.427,0 -0.704,-0.2133 -0.832,-0.64 l -1.92,-6.272 c -0.086,-0.1707 -0.192,-0.256 -0.32,-0.256 h -15.744 c -0.128,0 -0.235,0.0853 -0.32,0.256 l -1.856,6.272 c -0.128,0.4267 -0.406,0.64 -0.832,0.64 h -8.1285 c -0.256,0 -0.448,-0.064 -0.576,-0.192 -0.128,-0.1707 -0.1493,-0.4053 -0.064,-0.704 L 110.929,9.84 c 0.128,-0.42667 0.405,-0.64 0.831,-0.64 h 10.049 c 0.426,0 0.704,0.21333 0.832,0.64 l 13.824,43.264 c 0.042,0.0853 0.064,0.192 0.064,0.32 0,0.384 -0.235,0.576 -0.704,0.576 z M 110.865,39.472 c -0.043,0.256 0.042,0.384 0.256,0.384 h 11.264 c 0.256,0 0.341,-0.128 0.256,-0.384 l -5.76,-19.008 c -0.043,-0.1707 -0.107,-0.2347 -0.192,-0.192 -0.086,0 -0.15,0.064 -0.192,0.192 z M 20.808,110 c -0.4267,0 -0.704,-0.213 -0.832,-0.64 L 6.792,66.096 6.728,65.84 c 0,-0.4267 0.23467,-0.64 0.704,-0.64 h 8.064 c 0.4693,0 0.768,0.2133 0.896,0.64 l 8.512,31.232 c 0.0427,0.128 0.1067,0.192 0.192,0.192 0.0853,0 0.1493,-0.064 0.192,-0.192 L 33.672,65.84 C 33.8,65.4133 34.0987,65.2 34.568,65.2 h 7.872 c 0.256,0 0.448,0.0853 0.576,0.256 0.128,0.1707 0.1493,0.384 0.064,0.64 L 29.704,109.36 c -0.128,0.427 -0.4053,0.64 -0.832,0.64 z m 28.6765,0 c -0.2133,0 -0.4053,-0.064 -0.576,-0.192 -0.128,-0.171 -0.192,-0.363 -0.192,-0.576 V 65.968 c 0,-0.2133 0.064,-0.384 0.192,-0.512 0.1707,-0.1707 0.3627,-0.256 0.576,-0.256 h 7.488 c 0.2133,0 0.384,0.0853 0.512,0.256 0.1707,0.128 0.256,0.2987 0.256,0.512 v 43.264 c 0,0.213 -0.0853,0.405 -0.256,0.576 -0.128,0.128 -0.2987,0.192 -0.512,0.192 z m 40.6205,0 c -0.4267,0 -0.7253,-0.192 -0.896,-0.576 l -8,-17.728 C 81.1237,91.5253 80.9957,91.44 80.825,91.44 h -5.952 c -0.2133,0 -0.32,0.1067 -0.32,0.32 v 17.472 c 0,0.213 -0.0853,0.405 -0.256,0.576 -0.128,0.128 -0.2987,0.192 -0.512,0.192 h -7.488 c -0.2133,0 -0.4053,-0.064 -0.576,-0.192 -0.128,-0.171 -0.192,-0.363 -0.192,-0.576 V 65.968 c 0,-0.2133 0.064,-0.384 0.192,-0.512 0.1707,-0.1707 0.3627,-0.256 0.576,-0.256 h 18.304 c 2.7307,0 5.12,0.5547 7.168,1.664 2.0907,1.1093 3.6907,2.688 4.8,4.736 1.152,2.048 1.728,4.416 1.728,7.104 0,2.9013 -0.7253,5.3973 -2.176,7.488 -1.4507,2.048 -3.4773,3.4987 -6.08,4.352 -0.2133,0.0853 -0.2773,0.2347 -0.192,0.448 l 8.704,18.112 c 0.0853,0.171 0.128,0.299 0.128,0.384 0,0.341 -0.2347,0.512 -0.704,0.512 z M 74.873,72.944 c -0.2133,0 -0.32,0.1067 -0.32,0.32 v 10.944 c 0,0.2133 0.1067,0.32 0.32,0.32 h 8.384 c 1.792,0 3.2427,-0.5333 4.352,-1.6 1.152,-1.0667 1.728,-2.4533 1.728,-4.16 0,-1.7067 -0.576,-3.0933 -1.728,-4.16 -1.1093,-1.1093 -2.56,-1.664 -4.352,-1.664 z M 135.691,65.2 c 0.213,0 0.384,0.0853 0.512,0.256 0.171,0.128 0.256,0.2987 0.256,0.512 v 6.272 c 0,0.2133 -0.085,0.4053 -0.256,0.576 -0.128,0.128 -0.299,0.192 -0.512,0.192 h -11.456 c -0.213,0 -0.32,0.1067 -0.32,0.32 v 35.904 c 0,0.213 -0.085,0.405 -0.256,0.576 -0.128,0.128 -0.299,0.192 -0.512,0.192 h -7.488 c -0.213,0 -0.405,-0.064 -0.576,-0.192 -0.128,-0.171 -0.192,-0.363 -0.192,-0.576 V 73.328 c 0,-0.2133 -0.107,-0.32 -0.32,-0.32 h -11.136 c -0.213,0 -0.405,-0.064 -0.576,-0.192 -0.128,-0.1707 -0.192,-0.3627 -0.192,-0.576 v -6.272 c 0,-0.2133 0.064,-0.384 0.192,-0.512 0.171,-0.1707 0.363,-0.256 0.576,-0.256 z m 22.782,45.312 c -3.286,0 -6.187,-0.64 -8.704,-1.92 -2.475,-1.28 -4.416,-3.072 -5.824,-5.376 -1.366,-2.347 -2.048,-5.0347 -2.048,-8.064 V 65.968 c 0,-0.2133 0.064,-0.384 0.192,-0.512 0.17,-0.1707 0.362,-0.256 0.576,-0.256 h 7.488 c 0.213,0 0.384,0.0853 0.512,0.256 0.17,0.128 0.256,0.2987 0.256,0.512 v 29.248 c 0,2.2613 0.682,4.096 2.048,5.504 1.408,1.365 3.242,2.048 5.504,2.048 2.261,0 4.074,-0.683 5.44,-2.048 1.408,-1.408 2.112,-3.2427 2.112,-5.504 V 65.968 c 0,-0.2133 0.064,-0.384 0.192,-0.512 0.17,-0.1707 0.362,-0.256 0.576,-0.256 h 7.488 c 0.213,0 0.384,0.0853 0.512,0.256 0.17,0.128 0.256,0.2987 0.256,0.512 v 29.184 c 0,3.0293 -0.704,5.717 -2.112,8.064 -1.366,2.304 -3.307,4.096 -5.824,5.376 -2.475,1.28 -5.355,1.92 -8.64,1.92 z M 209.759,110 c -0.427,0 -0.704,-0.213 -0.832,-0.64 l -1.92,-6.272 c -0.085,-0.171 -0.192,-0.256 -0.32,-0.256 h -15.744 c -0.128,0 -0.235,0.085 -0.32,0.256 l -1.856,6.272 c -0.128,0.427 -0.405,0.64 -0.832,0.64 h -8.128 c -0.256,0 -0.448,-0.064 -0.576,-0.192 -0.128,-0.171 -0.149,-0.405 -0.064,-0.704 L 192.991,65.84 c 0.128,-0.4267 0.405,-0.64 0.832,-0.64 h 10.048 c 0.427,0 0.704,0.2133 0.832,0.64 l 13.824,43.264 c 0.043,0.085 0.064,0.192 0.064,0.32 0,0.384 -0.235,0.576 -0.704,0.576 z M 192.927,95.472 c -0.043,0.256 0.043,0.384 0.256,0.384 h 11.264 c 0.256,0 0.341,-0.128 0.256,-0.384 l -5.76,-19.008 c -0.043,-0.1707 -0.107,-0.2347 -0.192,-0.192 -0.085,0 -0.149,0.064 -0.192,0.192 z M 224.985,110 c -0.214,0 -0.406,-0.064 -0.576,-0.192 -0.128,-0.171 -0.192,-0.363 -0.192,-0.576 V 65.968 c 0,-0.2133 0.064,-0.384 0.192,-0.512 0.17,-0.1707 0.362,-0.256 0.576,-0.256 h 7.488 c 0.213,0 0.384,0.0853 0.512,0.256 0.17,0.128 0.256,0.2987 0.256,0.512 v 35.968 c 0,0.213 0.106,0.32 0.32,0.32 h 20.928 c 0.213,0 0.384,0.085 0.512,0.256 0.17,0.128 0.256,0.299 0.256,0.512 v 6.208 c 0,0.213 -0.086,0.405 -0.256,0.576 -0.128,0.128 -0.299,0.192 -0.512,0.192 z"
     id="path10"
     inkscape:connector-curvature="0"
     style="fill:#ffffff" />
  <circle
     cx="199"
     cy="30"
     r="13"
     id="circle12"
     style="fill:#ff4c29;stroke:#ffffff;stroke-width:4" />
  <rect
     x="170.5"
     y="28.5"
     width="14"
     height="3"
     id="rect14"
     style="fill:#ffffff;stroke:#ffffff" />
  <rect
     x="213.5"
     y="28.5"
     width="14"
     height="3"
     id="rect16"
     style="fill:#ffffff;stroke:#ffffff" />
</svg>
